<?xml version="1.0" encoding="utf-8"?>
<!-- Generator: Adobe Illustrator 26.0.1, SVG Export Plug-In . SVG Version: 6.00 Build 0)  -->
<svg version="1.1" id="レイヤー_1" xmlns="http://www.w3.org/2000/svg" xmlns:xlink="http://www.w3.org/1999/xlink" x="0px"
	 y="0px" viewBox="0 0 600 200" style="enable-background:new 0 0 600 200;" xml:space="preserve">
<style type="text/css">
	.st0{fill:#4D4D4D;}
</style>
<g>
	<path class="st0" d="M62.5,12.2l3.9-0.1c0.4,0,0.6-0.1,0.7-0.1c0,0,0.1,0,0.1,0c0.1,0,0.2,0,0.2,0.1c0.1,0.1,0.3,0.2,0.5,0.4
		c0.1,0.1,0.1,0.2,0.1,0.2c0,0.1,0,0.1-0.1,0.2c-0.2,0.2-0.3,0.3-0.4,0.5c-1,2.1-2,3.8-3.1,5c-1.5,1.7-3.2,3.1-5,4.2
		c0,0-0.1,0-0.1,0c0,0-0.1,0-0.1-0.1c-0.2-0.2-0.4-0.3-0.7-0.4c1.2-0.6,2.2-1.3,3.1-2.1c0.7-0.6,1.5-1.3,2.2-2.2c1.1-1.3,2.1-3,3-5
		L62,13c-1,1.3-2,2.5-3.2,3.5c-0.1,0.1-0.1,0.1-0.2,0.1c0,0-0.1,0-0.1-0.1c-0.2-0.1-0.5-0.2-0.7-0.3c1.7-1.4,3.1-2.9,4.1-4.6
		c0.5-0.8,0.7-1.4,0.8-2c0.4,0.1,0.8,0.3,1,0.5c0.1,0.1,0.1,0.1,0.1,0.2s0,0.1-0.1,0.2c-0.2,0.1-0.4,0.3-0.5,0.6
		C62.9,11.5,62.7,11.9,62.5,12.2z"/>
	<path class="st0" d="M117.5,12.3h2.6c0.8,0,1.3,0,1.4-0.1c0.1,0,0.1,0,0.2,0c0.1,0,0.2,0,0.2,0.1c0.2,0.1,0.4,0.3,0.5,0.5
		c0,0.1,0.1,0.1,0.1,0.2c0,0.1,0,0.1-0.1,0.2c-0.1,0.1-0.2,0.2-0.2,0.5c-0.4,1.8-1.1,3.4-1.9,4.8c-1,1.6-2.4,3-4.3,4.1
		c-0.1,0-0.1,0-0.1,0c0,0-0.1,0-0.1-0.1c-0.2-0.2-0.4-0.3-0.7-0.4c2-1.2,3.5-2.5,4.4-4.1c0.9-1.4,1.5-3.1,1.9-4.9h-8.2v1.6
		c0,0.7,0,1.3,0,1.9c0,0.2-0.1,0.2-0.2,0.2h-0.6c-0.1,0-0.2-0.1-0.2-0.2c0-0.4,0-1.1,0-1.9v-1.1c0-0.6,0-1,0-1.3c0,0,0,0,0,0
		c0-0.1,0-0.1,0.1-0.1c0,0,0,0,0,0c0.6,0,1.3,0.1,2.1,0.1h2.1v-0.9c0-0.8,0-1.4-0.1-1.8c0.5,0,0.8,0.1,1.1,0.1
		c0.1,0,0.2,0.1,0.2,0.2c0,0.1,0,0.1-0.1,0.2c-0.1,0.2-0.2,0.6-0.2,1.3V12.3z M121.6,10l0.5-0.3c0,0,0,0,0.1,0c0,0,0,0,0.1,0
		c0.6,0.4,1.2,1.1,1.8,1.9c0,0,0,0,0,0.1c0,0,0,0,0,0.1l-0.4,0.3c0,0,0,0-0.1,0c0,0-0.1,0-0.1-0.1C122.9,11.2,122.3,10.5,121.6,10z
		 M122.9,9l0.4-0.3c0,0,0.1,0,0.1,0s0,0,0.1,0c0.7,0.5,1.3,1.1,1.8,1.8c0,0,0,0.1,0,0.1c0,0,0,0.1-0.1,0.1l-0.4,0.3c0,0,0,0-0.1,0
		c0,0-0.1,0-0.1-0.1C124.2,10.2,123.6,9.5,122.9,9z"/>
	<path class="st0" d="M172.3,15.8v4.7h2.2c0.5,0,1.2,0,2.2,0c0.1,0,0.1,0.1,0.1,0.2V21c0,0.1-0.1,0.2-0.1,0.2c-1,0-1.8,0-2.2,0h-5.3
		c-0.4,0-1.1,0-2,0.1c-0.1,0-0.1-0.1-0.2-0.2c0-0.2,0-0.4,0-0.7c0.5,0,1.2,0,2.1,0h2.2v-4.7h-1.2c-0.8,0-1.4,0-1.8,0
		c-0.1,0-0.2-0.1-0.2-0.2c0-0.2,0-0.4,0-0.6c0.7,0,1.3,0.1,2.1,0.1h3.1c0.3,0,0.7,0,1.1,0c0.5,0,0.8,0,1,0c0.1,0,0.2,0.1,0.2,0.2
		v0.5c0,0.1-0.1,0.2-0.2,0.2c-1,0-1.8,0-2.1,0H172.3z"/>
	<path class="st0" d="M223,11.9c0.5,0.1,0.9,0.1,1.2,0.2c0.1,0,0.1,0.1,0.1,0.2c0,0.1,0,0.1,0,0.2c-0.1,0.2-0.2,0.5-0.2,1
		c0,1.8-0.4,3.3-1,4.6c-0.5,1.1-1.3,2-2.3,2.8c-0.1,0.1-0.2,0.1-0.2,0.1c0,0-0.1,0-0.1,0c-0.2-0.2-0.4-0.3-0.7-0.3
		c1.1-0.7,1.9-1.7,2.5-2.9c0.6-1.2,0.9-2.6,0.9-4.3C223.2,12.8,223.1,12.3,223,11.9z M227.4,19.6c1-0.5,2-1.1,2.9-1.8
		c1.1-0.8,2-1.7,2.8-2.6c0,0.3,0.1,0.6,0.2,0.8c0,0,0,0.1,0,0.1c0,0.1,0,0.1-0.1,0.2c-0.7,0.8-1.6,1.5-2.5,2.2
		c-0.8,0.6-1.7,1.2-2.7,1.8c-0.2,0.1-0.4,0.3-0.5,0.4c-0.1,0.1-0.1,0.1-0.2,0.1c-0.1,0-0.1,0-0.2-0.1c-0.2-0.2-0.4-0.4-0.5-0.6
		c0,0,0-0.1,0-0.2c0-0.1,0-0.1,0-0.2c0-0.1,0.1-0.6,0.1-1.3v-5.2c0-1.2-0.1-2-0.2-2.4c0.5,0,0.8,0.1,1.1,0.2c0.1,0,0.2,0.1,0.2,0.2
		c0,0.1,0,0.1-0.1,0.2c-0.1,0.2-0.2,0.8-0.2,1.8V19.6z"/>
	<path class="st0" d="M280.8,14.7c0.4,0,0.7,0.1,0.9,0.4c0.2,0.2,0.3,0.5,0.3,0.8c0,0.4-0.1,0.7-0.4,0.9c-0.2,0.2-0.5,0.3-0.8,0.3
		c-0.4,0-0.7-0.1-0.9-0.4c-0.2-0.2-0.3-0.5-0.3-0.8c0-0.4,0.1-0.7,0.4-0.9C280.2,14.8,280.5,14.7,280.8,14.7z"/>
	<path class="st0" d="M335.8,15c-0.1,1.8-0.4,3.3-0.9,4.3c-0.7,1.3-1.6,2.2-2.8,3c-0.1,0.1-0.2,0.1-0.3,0.1c0,0-0.1,0-0.1,0
		c-0.2-0.2-0.5-0.3-0.8-0.4c0.8-0.4,1.5-0.9,2-1.4c0.4-0.4,0.8-0.9,1.1-1.5c0.5-1,0.8-2.4,0.8-4h-3.3c-0.7,0-1.5,0-2.3,0.1
		c-0.1,0-0.2,0-0.2,0c0,0,0-0.1-0.1-0.2c0,0,0-0.3-0.1-0.7c0.8,0,1.7,0.1,2.6,0.1h6.8c1,0,1.9,0,2.8-0.1c0.1,0,0.2,0.1,0.2,0.2v0.5
		c0,0.1-0.1,0.2-0.2,0.2c-1,0-1.9,0-2.8,0H335.8z M330.9,10.7c0.8,0,1.6,0.1,2.4,0.1h2.9c1.1,0,2,0,2.6,0c0,0,0,0,0,0
		c0.1,0,0.1,0.1,0.1,0.2v0.5c0,0.1-0.1,0.2-0.2,0.2c-0.6,0-1.4,0-2.5,0h-2.9c-1,0-1.7,0-2.2,0.1c0,0,0,0-0.1,0
		c-0.1,0-0.1-0.1-0.1-0.2L330.9,10.7z M339.3,9.4l0.5-0.3c0,0,0,0,0.1,0c0,0,0,0,0.1,0c0.6,0.5,1.2,1.2,1.6,2c0,0,0,0.1,0,0.1
		c0,0,0,0.1-0.1,0.1l-0.4,0.3c0,0,0,0-0.1,0c0,0-0.1,0-0.1-0.1C340.5,10.7,339.9,10,339.3,9.4z M340.7,8.6l0.5-0.3c0,0,0.1,0,0.1,0
		c0,0,0,0,0.1,0c0.6,0.5,1.1,1.1,1.6,1.9c0,0,0,0.1,0,0.1c0,0,0,0.1-0.1,0.1l-0.4,0.3c0,0-0.1,0-0.1,0c0,0,0,0-0.1-0.1
		C341.9,9.9,341.3,9.2,340.7,8.6z"/>
	<path class="st0" d="M392.5,13.5h0.6c1.1,0,2,0,2.6,0c0.1,0,0.2,0.1,0.2,0.2v0.5c0,0.1,0,0.2-0.1,0.2c0,0,0,0-0.1,0
		c-0.6,0-1.5,0-2.6,0h-0.6c0,2.1-0.4,3.9-1.1,5.1c-0.8,1.4-2.1,2.4-3.9,3.1c-0.1,0-0.1,0-0.1,0c-0.1,0-0.1,0-0.2-0.1
		c-0.1-0.1-0.3-0.3-0.6-0.4c2-0.6,3.4-1.6,4.2-3c0.6-1.1,0.9-2.7,1-4.7h-4.3v0.9c0,0.4,0,0.8,0,1.4c0,0.7,0,1.1,0,1.2s0,0.1-0.1,0.1
		c-0.1,0-0.2,0-0.3,0s-0.2,0-0.3,0c-0.1,0-0.1-0.1-0.1-0.2c0-1.7,0-2.5,0-2.5v-0.9h-1c-0.8,0-1.6,0-2.4,0.1c0,0,0,0,0,0
		c-0.1,0-0.1-0.1-0.1-0.2c0-0.1,0-0.3,0-0.7c0.8,0,1.7,0.1,2.6,0.1h1v-1.4c0-0.9-0.1-1.6-0.2-2.2c0.5,0,0.8,0.1,1.1,0.2
		c0.1,0,0.1,0.1,0.1,0.2c0,0.1,0,0.1-0.1,0.2c-0.1,0.2-0.1,0.7-0.1,1.6v1.4h4.3v-1.4c0-1.1-0.1-1.9-0.2-2.5c0.3,0,0.6,0.1,1,0.2
		c0.1,0,0.2,0.1,0.2,0.2c0,0.1,0,0.1-0.1,0.2c-0.1,0.2-0.1,0.8-0.1,1.8V13.5z M393.6,9.7l0.5-0.2c0,0,0,0,0,0c0,0,0.1,0,0.1,0
		c0.5,0.5,1,1.2,1.4,2.1c0,0,0,0,0,0.1c0,0,0,0.1-0.1,0.1l-0.4,0.2c0,0,0,0-0.1,0c0,0-0.1,0-0.1-0.1C394.7,11,394.2,10.3,393.6,9.7z
		 M395.1,9l0.5-0.2c0,0,0,0,0.1,0s0,0,0.1,0c0.5,0.5,1,1.2,1.4,2c0,0,0,0,0,0.1c0,0,0,0.1-0.1,0.1l-0.4,0.2c0,0-0.1,0-0.1,0
		c0,0-0.1,0-0.1-0.1C396.2,10.4,395.7,9.6,395.1,9z"/>
	<path class="st0" d="M445.3,13.6v5.9c0,0.9,0,1.8,0,2.7c0,0.1,0,0.2-0.1,0.2c-0.1,0-0.2,0-0.4,0c-0.1,0-0.2,0-0.4,0
		c-0.1,0-0.1-0.1-0.1-0.2c0-0.9,0-1.8,0-2.7v-5.1c-1.5,1.4-3.3,2.7-5.2,3.8c0,0-0.1,0-0.1,0c-0.1,0-0.1,0-0.2-0.1
		c-0.2-0.2-0.4-0.3-0.6-0.4c1.9-1.1,3.6-2.2,5-3.4c1.3-1.1,2.4-2.2,3.2-3.2c0.5-0.6,0.8-1.1,0.9-1.6c0.4,0.2,0.7,0.4,0.9,0.6
		c0.1,0.1,0.1,0.1,0.1,0.2c0,0.1,0,0.2-0.1,0.2c-0.2,0.1-0.5,0.4-0.9,0.8C446.7,12.1,446,12.8,445.3,13.6z"/>
	<path class="st0" d="M493.3,11.9c0.1-0.2,0.3-0.4,0.5-0.6c0,0,0.1-0.1,0.1-0.1c0,0,0.1,0,0.1,0c1,0.6,2,1.3,2.8,2.1
		c0.1,0.1,0.1,0.1,0.1,0.1c0,0,0,0.1,0,0.1c-0.1,0.2-0.3,0.4-0.4,0.5c0,0-0.1,0.1-0.1,0.1c0,0-0.1,0-0.1-0.1
		C495.2,13.3,494.2,12.5,493.3,11.9z M493.6,20.5c0.6-0.1,1.1-0.3,1.5-0.6c1.8-0.9,3.3-1.9,4.6-3c1.8-1.4,3.2-2.8,4.3-4.2
		c0,0.3,0.1,0.5,0.2,0.8c0,0.1,0,0.1,0,0.2c0,0.1,0,0.2-0.1,0.3c-1.1,1.3-2.4,2.5-3.9,3.7c-1.4,1.1-2.9,2.1-4.8,3.1
		c-0.4,0.2-0.6,0.4-0.8,0.6c-0.1,0.1-0.1,0.1-0.2,0.1c-0.1,0-0.1,0-0.2-0.1C494.1,21.2,493.9,20.9,493.6,20.5z"/>
</g>
<g>
	<path class="st0" d="M67.8,124.1l-0.7,5.5c-2.8,0.4-5.7,0.6-8.8,0.6c-4.8,0-8.2-0.8-10.3-2.4c-1.7-1.3-3.2-3.7-4.4-7.2l-1.8-4.9
		c-8.6-0.2-15.5-3.8-20.5-11c-4.6-6.5-6.8-14.9-6.8-25.1c0-12,3.1-21.3,9.2-28c5.1-5.6,11.5-8.3,19.2-8.3c8.9,0,16,3.6,21.3,10.7
		c4.8,6.5,7.1,14.9,7.1,25.4c0,10.8-2.5,19.4-7.4,26.1c-4.1,5.5-9.4,8.8-15.8,10l1.1,3.3c0.9,2.6,2,4.4,3.5,5.2
		c1.3,0.8,3.4,1.1,6.3,1.1C62.1,125,65,124.7,67.8,124.1z M42.8,48.7c-7,0-12.4,3-16.4,9c-3.6,5.4-5.3,12.7-5.3,21.7
		c0,10.4,2.3,18.4,6.9,24c3.8,4.7,8.8,7,14.8,7c7,0,12.5-3,16.4-9.1c3.5-5.5,5.3-12.8,5.3-21.9c0-10.4-2.3-18.3-6.8-23.8
		C53.8,51,48.9,48.7,42.8,48.7z"/>
	<path class="st0" d="M151.1,66.4l-14.5,48h-7.4l-8.1-29.7c-1-3.8-2.1-8.3-3.2-13.5h-1.1c-1.3,6.4-2.4,11-3,13.5l-8.1,29.7h-7.4
		l-14.3-48h6.4l7.9,29.9c1.2,4.8,2.3,9.2,3.3,13.5h1c2-8.7,3-13.1,3.1-13.4l8-30h7.7l8,29.6c0.7,2.6,1.7,7.1,3,13.7h1.1
		c1.1-5.1,2.2-9.6,3.3-13.6l8.2-29.7H151.1z"/>
	<path class="st0" d="M204.4,90.8h-34.8c0,6.7,1.6,11.9,4.9,15.5c2.7,3,6.2,4.5,10.4,4.5c6.9,0,11.4-3.4,13.6-10.3l5.6,2.1
		c-3.3,8.6-9.7,12.9-19.3,12.9c-6.7,0-12-2.5-15.9-7.6c-3.4-4.5-5.2-10.3-5.2-17.4c0-8.1,2.2-14.5,6.6-19.3c3.7-4,8.4-6,13.9-6
		c6.3,0,11.4,2.5,15.1,7.4c3.3,4.4,5,10,5,16.7V90.8z M198.5,86.3c-0.4-5.6-2.1-9.8-4.9-12.7c-2.4-2.5-5.5-3.7-9.2-3.7
		c-4.3,0-7.8,1.7-10.5,5c-2.4,2.9-3.7,6.7-4.1,11.3H198.5z"/>
	<path class="st0" d="M228.8,43.1v71.2h-6V43.1H228.8z"/>
	<path class="st0" d="M281.4,44.4h20.7c11.2,0,19.7,3.2,25.5,9.7c5.2,5.9,7.8,14.2,7.8,24.9c0,12.3-3.6,21.5-10.8,27.7
		c-5.9,5.1-13.8,7.7-23.6,7.7h-19.5V44.4z M287.7,49.8V109h13c9.3,0,16.4-2.7,21.2-8.2c4.5-5.1,6.8-12.3,6.8-21.7
		c0-19.6-9-29.3-27.1-29.3H287.7z"/>
	<path class="st0" d="M391.7,90.8h-34.8c0,6.7,1.6,11.9,4.9,15.5c2.7,3,6.2,4.5,10.4,4.5c6.9,0,11.4-3.4,13.6-10.3l5.6,2.1
		c-3.3,8.6-9.7,12.9-19.3,12.9c-6.7,0-12-2.5-15.9-7.6c-3.4-4.5-5.2-10.3-5.2-17.4c0-8.1,2.2-14.5,6.6-19.3c3.7-4,8.4-6,13.9-6
		c6.3,0,11.4,2.5,15.1,7.4c3.3,4.4,5,10,5,16.7V90.8z M385.7,86.3c-0.4-5.6-2.1-9.8-4.9-12.7c-2.4-2.5-5.5-3.7-9.2-3.7
		c-4.3,0-7.8,1.7-10.5,5c-2.4,2.9-3.7,6.7-4.1,11.3H385.7z"/>
	<path class="st0" d="M441.8,76.5l-5.8,2c-1.8-5.8-5.7-8.7-11.7-8.7c-3.6,0-6.4,0.8-8.4,2.4c-1.7,1.4-2.5,3.1-2.5,5.3
		c0,2.7,0.8,4.7,2.5,6c1.5,1.2,4.2,2.2,8,3l3.8,0.8c5.9,1.4,10,3.2,12.2,5.4c2,2,3,4.9,3,8.6c0,4.4-1.7,7.9-5.1,10.5
		c-3.2,2.4-7.6,3.7-13.1,3.7c-9.7,0-16-3.9-18.9-11.6l5.8-2.2c2.1,6.1,6.5,9.1,13.3,9.1c4.4,0,7.7-1,9.8-3c1.6-1.6,2.4-3.5,2.4-5.8
		c0-3-0.8-5.1-2.5-6.4c-1.6-1.2-4.6-2.3-8.9-3.3l-3.8-0.9c-5.7-1.3-9.5-3.1-11.6-5.4c-1.7-1.9-2.6-4.5-2.6-7.9c0-4,1.6-7.2,4.7-9.6
		c2.9-2.2,6.9-3.3,12-3.3C433.1,65.2,438.9,69,441.8,76.5z"/>
	<path class="st0" d="M468.7,47v9h-8.8v-9H468.7z M467.3,66.4v48h-6v-48H467.3z"/>
	<path class="st0" d="M527.7,60.5l-0.5,5.5c-2.6,0-4.6,0.3-6.2,1c-1.3,0.6-2.6,1.5-3.9,2.8c3.4,2.7,5.1,6.5,5.1,11.2
		c0,5.2-1.9,9.2-5.6,12.1c-3.2,2.5-7.1,3.7-12,3.7c-2.9,0-5.5-0.5-8-1.5c-3.2,1.8-4.8,3.7-4.8,5.7c0,1.7,0.7,2.9,2.1,3.5
		c1.3,0.6,4,1.1,8.1,1.5l9.4,0.9c6.5,0.7,11,2.1,13.5,4.4c1.9,1.7,2.8,4,2.8,7c0,4.2-2.1,7.5-6.4,10c-4,2.2-9.4,3.4-16.1,3.4
		c-7.2,0-12.6-1.2-16.4-3.7c-3.2-2.1-4.8-4.8-4.8-8.2c0-2.4,1-4.6,3-6.5c1.7-1.7,4-3,6.8-3.9c-4.9-1.1-7.3-3.4-7.3-7
		c0-3.2,2.2-6.2,6.7-9.3c-4-2.9-6-7-6-12.1c0-5.1,1.9-9.1,5.8-12.1c3.2-2.5,7.1-3.8,11.7-3.8c3.6,0,6.7,0.7,9.2,2.2
		c1.8-2.6,3.9-4.4,6.2-5.5C522.2,61,524.7,60.5,527.7,60.5z M498.9,110.7c-6.3,1.7-9.4,4.5-9.4,8.5c0,2.9,1.7,5.1,5,6.6
		c2.7,1.2,6.4,1.8,10.9,1.8c5.7,0,10-0.9,13.1-2.8c2.5-1.5,3.7-3.5,3.7-5.8c0-2.1-0.9-3.7-2.7-4.8c-1.9-1.1-5.1-1.9-9.6-2.3
		L498.9,110.7z M504.7,69.4c-3.6,0-6.5,1.2-8.8,3.5c-2.1,2.1-3.1,4.9-3.1,8.2c0,3.8,1.3,6.8,3.9,8.9c2.1,1.8,4.8,2.6,7.9,2.6
		c3.6,0,6.5-1.1,8.8-3.4c2.1-2.1,3.1-4.8,3.1-8.1c0-3.9-1.3-6.9-3.9-9C510.4,70.3,507.8,69.4,504.7,69.4z"/>
	<path class="st0" d="M549.6,66.4v8.9c5.4-6.7,11.2-10.1,17.5-10.1c4.3,0,7.7,1.4,10.2,4.1c2.2,2.4,3.3,5.6,3.3,9.5v35.6h-6V81.2
		c0-7.1-3-10.6-8.9-10.6c-5.6,0-10.8,3.3-15.8,10v33.8h-6v-48H549.6z"/>
</g>
<rect y="140" class="st0" width="600" height="4"/>
<g>
	<path class="st0" d="M20.5,171.9v7.5l0,3.2c0,0.1-0.1,0.2-0.2,0.2h-0.8c-0.1,0-0.2-0.1-0.2-0.2l0-3.2v-6.8c-0.9,1-1.9,2-3,2.9
		c-0.2,0.1-0.3,0.2-0.3,0.2c-0.1,0-0.1-0.1-0.2-0.2c-0.1-0.2-0.3-0.5-0.5-0.7c2.8-1.9,5.1-4.6,6.8-8.3h-3.5l-2.4,0
		c-0.1,0-0.2-0.1-0.2-0.2v-0.8c0-0.1,0.1-0.2,0.2-0.2l2.4,0h0.7v-1.5c0-1.3-0.1-2.1-0.2-2.6c0.4,0,0.8,0.1,1.2,0.1
		c0.2,0,0.3,0.1,0.3,0.2s-0.1,0.2-0.2,0.5c-0.1,0.2-0.1,0.8-0.1,1.9v1.5h1.8c0.2,0,0.3,0,0.4-0.1s0.2-0.1,0.2-0.1
		c0.1,0,0.3,0.1,0.6,0.4c0.2,0.2,0.3,0.4,0.3,0.5c0,0.1-0.1,0.2-0.2,0.3c-0.1,0.1-0.3,0.3-0.4,0.6c-0.7,1.4-1.5,2.8-2.4,4
		c0.8,1,1.8,1.9,3,2.7c-0.2,0.1-0.3,0.3-0.5,0.6c-0.1,0.1-0.2,0.2-0.2,0.2c0,0-0.1-0.1-0.3-0.2C21.8,173.5,21.1,172.8,20.5,171.9z
		 M27.2,163.8l-3.3,0c-0.1,0-0.2,0-0.2-0.1v-0.8c0-0.1,0.1-0.2,0.2-0.2l3.3,0h6.4l3.3,0c0.1,0,0.2,0.1,0.2,0.2v0.8
		c0,0.1-0.1,0.1-0.2,0.1l-3.3,0H27.2z M25.2,181.4v1.1c0,0.1-0.1,0.2-0.2,0.2h-0.7c-0.1,0-0.2-0.1-0.2-0.2l0-4.4v-2.2l0-2.9
		c0-0.1,0.1-0.2,0.2-0.2l3.2,0h5.6l3.2,0c0.1,0,0.1,0.1,0.1,0.2l0,2.6v2.4l0,4.4c0,0.1-0.1,0.1-0.2,0.1h-0.8c-0.1,0-0.2,0-0.2-0.1
		v-1H25.2z M29.7,176.6v-2.7h-4.5v2.7H29.7z M29.7,177.5h-4.5v2.9h4.5V177.5z M32,170.9h-3.6l-2.8,0c-0.1,0-0.2-0.1-0.2-0.2l0-1.6
		v-1.4l0-1.7c0-0.1,0.1-0.1,0.2-0.1l2.8,0H32l2.8,0c0.1,0,0.2,0,0.2,0.1l0,1.6v1.5l0,1.6c0,0.1-0.1,0.2-0.2,0.2L32,170.9z
		 M26.6,169.9h7.3v-3.1h-7.3V169.9z M30.7,176.6h4.7v-2.7h-4.7V176.6z M30.7,177.5v2.9h4.7v-2.9H30.7z"/>
	<path class="st0" d="M48,175h-2.8l-3.2,0c-0.1,0-0.2-0.1-0.2-0.2V174c0-0.1,0.1-0.2,0.2-0.2l3.2,0h3c0.1-0.9,0.2-2.1,0.2-3.8v-2h-2
		l-3.3,0c-0.1,0-0.2-0.1-0.2-0.2v-0.8c0-0.1,0.1-0.2,0.2-0.2l3.3,0h2v-1.6c0-1.6-0.1-2.8-0.2-3.6c0.4,0,0.8,0.1,1.2,0.1
		c0.2,0,0.3,0.1,0.3,0.2c0,0,0,0.1,0,0.2c0,0.1-0.1,0.2-0.1,0.2c-0.1,0.3-0.1,1.3-0.1,2.9v1.5h6.3v-2c0-1.4-0.1-2.4-0.2-3.2
		c0.4,0,0.8,0.1,1.3,0.1c0.2,0,0.2,0.1,0.2,0.2c0,0.1,0,0.2-0.1,0.4c-0.1,0.3-0.1,1.1-0.1,2.4v2.1h1.9l3.3,0c0.1,0,0.2,0.1,0.2,0.2
		v0.8c0,0.1-0.1,0.2-0.2,0.2l-3.3,0h-1.9v5.8h2.8l3.1,0c0.1,0,0.2,0.1,0.2,0.2v0.8c0,0.1-0.1,0.2-0.2,0.2l-3.1,0h-2.8v3.3l0,4
		c0,0.1-0.1,0.2-0.2,0.2h-0.9c-0.1,0-0.2-0.1-0.2-0.2l0-4V175h-6.5c-0.1,0.8-0.3,1.5-0.5,2.2c-0.4,1.2-0.9,2.2-1.7,3.1
		c-0.6,0.7-1.4,1.4-2.4,2.1c-0.1,0.1-0.2,0.2-0.3,0.2c-0.1,0-0.2-0.1-0.3-0.2c-0.2-0.2-0.4-0.4-0.7-0.5c1.2-0.7,2.2-1.5,2.8-2.3
		c0.6-0.8,1.1-1.7,1.5-2.8C47.8,176,48,175.5,48,175z M49.4,168.1v2c0,1.6,0,2.9-0.1,3.8h6.4v-5.8H49.4z"/>
	<path class="st0" d="M77.3,165.1v-1.2c0-1.2-0.1-2.1-0.2-2.5c0.5,0,0.9,0.1,1.3,0.1c0.2,0,0.3,0.1,0.3,0.2c0,0.1,0,0.2-0.1,0.4
		c-0.1,0.2-0.1,0.8-0.1,1.8v1.2H85l3.2,0c0.1,0,0.2,0.1,0.2,0.2v0.8c0,0.1-0.1,0.2-0.2,0.2l-3.2,0H71.4l-3.2,0
		c-0.1,0-0.2-0.1-0.2-0.2v-0.8c0-0.1,0.1-0.2,0.2-0.2l3.2,0H77.3z M78.5,170h4.1l3.5,0c0.1,0,0.2,0.1,0.2,0.2l0,2.7v3.1l0,1.9
		c0,0.6-0.2,1.1-0.5,1.4c-0.2,0.2-0.5,0.3-0.9,0.4c-0.4,0.1-1.1,0.1-2.1,0.1c-0.2,0-0.3,0-0.4-0.1c0,0-0.1-0.1-0.1-0.3
		c-0.1-0.3-0.2-0.6-0.4-0.8c0.8,0.1,1.5,0.1,2.1,0.1c0.4,0,0.7-0.1,0.9-0.3c0.1-0.2,0.2-0.4,0.2-0.8V171h-6.5v8l0,3.6
		c0,0.1-0.1,0.2-0.2,0.2h-0.9c-0.1,0-0.2-0.1-0.2-0.2l0-3.6v-8h-5.9v5.7l0,3c0,0.1-0.1,0.2-0.2,0.2h-0.9c-0.1,0-0.1-0.1-0.1-0.2
		l0-2.9v-4.1l0-2.5c0-0.1,0-0.2,0.1-0.2l3.5,0h3.5v-0.5c0-1.2,0-2-0.1-2.5c0.6,0,1,0.1,1.3,0.1c0.2,0,0.3,0.1,0.3,0.2
		c0,0.1-0.1,0.2-0.2,0.5c-0.1,0.2-0.1,0.8-0.1,1.7V170z"/>
	<path class="st0" d="M99.3,179.7c1.5,1,3.9,1.4,7.2,1.4c2.7,0,5.6-0.2,8.5-0.6c-0.2,0.3-0.3,0.6-0.4,0.8c0,0.2-0.1,0.3-0.1,0.4
		c0,0-0.1,0.1-0.3,0.1c-2.5,0.2-5,0.3-7.5,0.3c-2.2,0-3.9-0.2-5.2-0.5c-1.2-0.3-2.1-0.7-3-1.3c-1.2-0.9-2.2-2.1-3-3.5
		c-0.4,2.1-1,3.8-1.8,5.3c-0.1,0.2-0.2,0.3-0.2,0.3c-0.1,0-0.2,0-0.3-0.1c-0.2-0.1-0.4-0.2-0.6-0.3c1.5-2.7,2.3-5.8,2.3-9.2
		c0-0.3,0-0.7-0.1-1c0.4,0.1,0.8,0.1,1.1,0.2c0.2,0,0.3,0.1,0.3,0.2c0,0,0,0.2-0.1,0.3c-0.1,0.1-0.1,0.4-0.2,0.7
		c0,0.6-0.1,1.4-0.2,2.2c0.6,1.3,1.4,2.5,2.4,3.4v-8.5h-1.9l-2.8,0.1c-0.1,0-0.2-0.1-0.2-0.2v-0.7c0-0.1,0.1-0.2,0.2-0.2l2.8,0h1.8
		v-3.5h-1.2l-2.5,0c-0.1,0-0.2-0.1-0.2-0.2V165c0-0.1,0.1-0.2,0.2-0.2l2.5,0.1h1.2v-0.6c0-1.4-0.1-2.4-0.2-3c0.3,0,0.7,0.1,1.2,0.1
		c0.2,0,0.2,0.1,0.2,0.2c0,0,0,0.2-0.1,0.4c-0.1,0.4-0.1,1.1-0.1,2.3v0.6h0.8l2.6-0.1c0.1,0,0.1,0.1,0.1,0.2v0.7
		c0,0.1,0,0.2-0.1,0.2l-2.6,0h-0.8v3.5h0.9l2.8,0c0.1,0,0.2,0.1,0.2,0.2v0.7c0,0.1-0.1,0.2-0.2,0.2l-2.8-0.1h-0.8v3.4h1.6l1.3,0
		c0.1,0,0.2,0.1,0.2,0.2v0.8c0,0.1-0.1,0.2-0.2,0.2l-1.3,0h-1.6V179.7z M108.1,166.6h-3.4v8.8c1-0.5,2.2-1.1,3.5-1.9
		c0,0.1,0,0.2,0,0.3s0,0.2,0,0.3c0,0.1,0,0.2,0,0.3c0,0.1-0.1,0.2-0.3,0.3c-1.4,0.9-3,1.7-4.8,2.6c-0.4,0.2-0.7,0.3-0.8,0.5
		c-0.1,0.1-0.3,0.2-0.3,0.2c-0.1,0-0.2-0.1-0.3-0.2c-0.1-0.2-0.3-0.5-0.5-1c0.7-0.2,1.3-0.4,1.9-0.6l0.6-0.2v-7.4l0-2.7
		c0-0.1,0.1-0.1,0.2-0.1l3,0h1.2c0-0.4,0-0.9,0-1.7c0-1.3,0-2.2-0.1-2.8c0.4,0,0.7,0.1,1.1,0.2c0.2,0,0.3,0.1,0.3,0.2
		c0,0.1,0,0.3-0.1,0.5c-0.1,0.3-0.2,1-0.2,2.2c0,0.6,0,1,0,1.3h2l2.9,0c0.1,0,0.2,0,0.2,0.1v0.8c0,0.1-0.1,0.2-0.2,0.2l-2.9,0h-1.9
		c0.2,2.7,0.6,5.1,1.2,7.1c0.6-0.9,1-2,1.4-3.2c0.3-0.9,0.4-1.6,0.4-2.2c0.4,0.1,0.7,0.2,1,0.3c0.2,0.1,0.3,0.2,0.3,0.3
		c0,0.1-0.1,0.2-0.2,0.4c0,0-0.2,0.5-0.6,1.4c-0.6,1.6-1.3,3-2,4.1c0.4,1,0.9,1.8,1.3,2.3c0.4,0.5,0.7,0.7,1,0.7
		c0.4,0,0.7-1.1,0.9-3.3c0.2,0.2,0.3,0.4,0.6,0.6c0.2,0.1,0.3,0.2,0.3,0.3c0,0,0,0.1,0,0.2c-0.2,1.4-0.4,2.3-0.7,2.8
		c-0.2,0.4-0.6,0.6-1,0.6c-0.5,0-1-0.3-1.6-0.9c-0.5-0.6-1-1.3-1.5-2.3c-1,1.3-2.3,2.5-4.1,3.6c-0.2,0.1-0.3,0.2-0.3,0.2
		c-0.1,0-0.1-0.1-0.3-0.2c-0.2-0.2-0.4-0.3-0.6-0.4c2.1-1.2,3.7-2.6,4.8-4.1C108.9,172.5,108.3,169.7,108.1,166.6z M111.5,161.8
		c0.6,0.5,1.3,1.2,2,2.1c0,0.1,0.1,0.1,0.1,0.1c0,0,0,0.1-0.1,0.2l-0.3,0.3c-0.1,0.1-0.2,0.2-0.3,0.2c0,0-0.1,0-0.1-0.1
		c-0.5-0.8-1.1-1.5-1.9-2.2c-0.1,0-0.1-0.1-0.1-0.1s0.1-0.1,0.2-0.2l0.3-0.2c0.1-0.1,0.1-0.1,0.1-0.1
		C111.4,161.7,111.5,161.7,111.5,161.8z"/>
	<path class="st0" d="M132.4,165.4h4.5l3.2,0c0.1,0,0.2,0.1,0.2,0.2v0.8c0,0.1-0.1,0.2-0.2,0.2l-3.2,0h-14.1l-3.2,0
		c-0.1,0-0.2-0.1-0.2-0.2v-0.8c0-0.1,0.1-0.2,0.2-0.2l3.2,0h8.4c0.6-0.8,1.3-1.7,2-2.9c0.3-0.4,0.4-0.9,0.6-1.3
		c0.4,0.1,0.8,0.2,1.1,0.4c0.1,0.1,0.2,0.2,0.2,0.2c0,0.1-0.1,0.2-0.2,0.3c-0.1,0.1-0.4,0.5-0.8,1
		C133.7,163.6,133.2,164.4,132.4,165.4z M128,177.4h-5.5v2.1l0,3.1c0,0.1-0.1,0.1-0.2,0.1h-0.8c-0.1,0-0.2,0-0.2-0.1l0-3.1V172
		l0-3.2c0-0.1,0.1-0.2,0.2-0.2l2.4,0h2.5l2.4,0c0.1,0,0.2,0.1,0.2,0.2l0,3.3v5.4l0,3.1c0,0.7-0.2,1.2-0.5,1.5
		c-0.4,0.2-1.3,0.4-2.7,0.4c-0.2,0-0.3,0-0.4-0.1c0,0-0.1-0.1-0.1-0.3c-0.1-0.3-0.2-0.5-0.4-0.8c0.7,0,1.3,0.1,1.9,0.1
		c0.5,0,0.8-0.1,1-0.2c0.1-0.1,0.2-0.3,0.2-0.7V177.4z M128,172.6v-2.9h-5.5v2.9H128z M128,176.5v-3h-5.5v3H128z M125.6,161.4
		c0.6,0.7,1.2,1.6,1.7,2.8c0,0,0,0.1,0,0.1c0,0.1-0.1,0.1-0.3,0.2l-0.4,0.1c-0.2,0.1-0.3,0.1-0.3,0.1c-0.1,0-0.1,0-0.1-0.1
		c-0.5-1-1-1.9-1.6-2.7c0-0.1,0-0.1,0-0.1c0-0.1,0.1-0.1,0.2-0.2l0.4-0.2c0.1-0.1,0.2-0.1,0.2-0.1
		C125.5,161.3,125.6,161.3,125.6,161.4z M132.3,169.3c0.5,0,0.9,0.1,1.2,0.2c0.1,0,0.2,0.1,0.2,0.2l-0.1,0.4
		c-0.1,0.2-0.1,0.9-0.1,2.1v3.1l0,2.5c0,0.1,0,0.2-0.1,0.2h-0.8c-0.1,0-0.2-0.1-0.2-0.2l0-2.5v-3.1
		C132.5,170.7,132.4,169.8,132.3,169.3z M133.7,181.3c0.6,0.1,1.4,0.1,2.2,0.1c0.5,0,0.9-0.1,1-0.3c0.2-0.2,0.3-0.5,0.3-1V171
		c0-1.3-0.1-2.2-0.2-2.7c0.5,0,0.9,0.1,1.2,0.1c0.2,0,0.3,0.1,0.3,0.2c0,0-0.1,0.2-0.2,0.5c-0.1,0.2-0.1,0.8-0.1,1.9v6.3l0,3.1
		c0,0.9-0.2,1.4-0.6,1.7c-0.2,0.2-0.5,0.3-0.8,0.3s-0.8,0.1-1.6,0.1c-0.2,0-0.4,0-0.7,0c-0.2,0-0.3,0-0.4-0.1c0,0-0.1-0.1-0.1-0.3
		C134,181.8,133.8,181.5,133.7,181.3z"/>
	<path class="st0" d="M144.8,168.6c-0.1,0-0.1-0.1-0.1-0.1s0-0.1,0.1-0.2l0.3-0.4c0.1-0.1,0.1-0.2,0.2-0.2c0,0,0.1,0,0.1,0
		c1.2,0.7,2.4,1.6,3.4,2.6c0,0,0.1,0.1,0.1,0.1s0,0.1-0.1,0.2l-0.4,0.5c-0.1,0.1-0.2,0.2-0.2,0.2c0,0-0.1,0-0.1-0.1
		C147.1,170.3,146,169.4,144.8,168.6z M145.1,181.8c0.3-0.4,0.7-1,1.1-1.7c0.9-1.9,1.6-3.8,2.2-5.7c0.2,0.2,0.4,0.4,0.6,0.5
		c0.2,0.1,0.3,0.2,0.3,0.3c0,0,0,0.2-0.1,0.3c-0.5,1.6-1.2,3.6-2.2,5.7c-0.3,0.6-0.4,1-0.4,1.1c0,0.2-0.1,0.3-0.2,0.3
		c-0.1,0-0.2,0-0.3-0.1C145.8,182.3,145.5,182.1,145.1,181.8z M146.9,161.9c1.1,0.7,2.1,1.6,3.1,2.6c0,0,0.1,0.1,0.1,0.1
		s-0.1,0.1-0.2,0.2l-0.3,0.4c-0.1,0.1-0.2,0.2-0.2,0.2c0,0-0.1,0-0.1-0.1c-1-1.1-2-2-3.1-2.8c-0.1,0-0.1-0.1-0.1-0.1
		c0,0,0.1-0.1,0.2-0.2l0.3-0.3c0.1-0.1,0.2-0.2,0.2-0.2C146.8,161.9,146.9,161.9,146.9,161.9z M152.4,179.2
		c-0.2,0.8-0.4,1.3-0.5,1.6c0,0.1-0.1,0.2-0.2,0.2c-0.1,0-0.2,0-0.5,0c-0.4-0.1-0.6-0.1-0.6-0.2c0,0,0-0.1,0-0.1
		c0.3-0.7,0.5-1.2,0.6-1.7c0.5-1.8,0.8-3.5,1.1-5.1c-0.7,0-1.3,0-1.9,0c-0.4,0-0.6,0-0.6,0c-0.1,0-0.2-0.1-0.2-0.2v-0.7
		c0-0.1,0.1-0.1,0.2-0.1l2.6,0c0.1-0.7,0.2-1.8,0.4-3.3c0.1-0.7,0.1-1.3,0.1-1.7c0-0.1,0.1-0.2,0.2-0.2l3,0h4.6l3,0
		c0.1,0,0.2,0.1,0.2,0.2c-0.1,0.8-0.1,1.4-0.1,1.9c0,0.8-0.1,1.8-0.2,3.2l2.7,0c0.1,0,0.2,0,0.2,0.1v0.7c0,0.1-0.1,0.2-0.2,0.2
		l-2.7,0c-0.1,1.7-0.3,3.1-0.5,4.5c0.7,0,1.3,0,1.8,0c0,0,0.2,0,0.4,0c0.1,0,0.1,0,0.1,0c0.1,0,0.2,0.1,0.2,0.2v0.7
		c0,0.1-0.1,0.2-0.2,0.2c0,0-0.1,0-0.3,0c-0.6,0-1.3,0-2.1,0c0,0.1,0,0.2-0.1,0.4c0,0.1,0,0.3,0,0.3c-0.2,1-0.5,1.7-0.9,2.1
		s-1.1,0.6-2,0.6c-0.5,0-0.9,0-1.2,0c-0.2,0-0.3,0-0.3-0.1c0,0-0.1-0.2-0.1-0.4c-0.1-0.3-0.2-0.5-0.4-0.7c0.6,0.1,1.3,0.1,2,0.1
		c0.6,0,1-0.2,1.3-0.5c0.2-0.3,0.4-0.8,0.5-1.5l0.1-0.4H152.4z M153.9,164.2h8.7l3.3,0c0.1,0,0.2,0.1,0.2,0.2v0.8
		c0,0.1-0.1,0.2-0.2,0.2l-3.3,0h-9.2c-0.6,1.2-1.5,2.4-2.5,3.5c-0.1,0.1-0.2,0.2-0.2,0.2c-0.1,0-0.2-0.1-0.3-0.2
		c-0.1-0.1-0.3-0.2-0.6-0.4c1.8-1.8,3.1-3.8,3.8-6.2c0.1-0.3,0.1-0.6,0.2-1c0.5,0.1,0.9,0.2,1.1,0.3c0.2,0.1,0.2,0.1,0.2,0.2
		c0,0.1,0,0.2-0.1,0.3c-0.2,0.2-0.3,0.4-0.4,0.7C154.3,163.2,154.1,163.8,153.9,164.2z M156.7,178.3c0.3-2,0.5-3.5,0.6-4.5h-3.9
		c-0.4,2-0.7,3.5-0.9,4.5H156.7z M157.5,172.9c0.1-1.2,0.2-2.6,0.3-4.2h-3.8c-0.1,1.2-0.3,2.7-0.5,4.2H157.5z M158.4,173.8
		c-0.2,1.6-0.4,3.1-0.7,4.5h4.4c0.2-1.3,0.3-2.8,0.5-4.5H158.4z M158.6,172.9h4.1c0.1-1.4,0.2-2.8,0.2-4.2h-4
		C158.8,170.1,158.7,171.5,158.6,172.9z"/>
	<path class="st0" d="M174.1,169.7v1.6c0,2-0.1,3.6-0.3,4.9c-0.3,2-1.1,4.1-2.4,6.1c-0.1,0.1-0.2,0.2-0.2,0.2s-0.1-0.1-0.3-0.2
		c-0.2-0.2-0.5-0.4-0.7-0.5c0.8-1,1.4-2.1,1.8-3.1c0.3-0.9,0.6-1.8,0.7-3c0.2-1.1,0.3-2.7,0.3-4.7l-0.1-2.3c0-0.1,0.1-0.2,0.2-0.2
		l3.4,0h10.7l3.4,0c0.1,0,0.2,0.1,0.2,0.2v0.8c0,0.1-0.1,0.2-0.2,0.2l-3.4,0H174.1z M180.7,165.5v-1.7c0-1.2,0-2.1-0.1-2.6
		c0.4,0,0.8,0.1,1.2,0.1c0.2,0,0.2,0.1,0.2,0.2s0,0.2-0.1,0.4c-0.1,0.2-0.2,0.9-0.2,1.8v1.7h6.6v-1.2c0-0.7,0-1.2-0.1-1.6
		c0.5,0,0.9,0.1,1.3,0.1c0.2,0,0.2,0.1,0.2,0.2c0,0.1,0,0.2-0.1,0.3c-0.1,0.2-0.1,0.5-0.1,1v0.5l0,1.5c0,0.1-0.1,0.2-0.2,0.2l-3.5,0
		h-9l-3.5,0c-0.1,0-0.2-0.1-0.2-0.2l0-1.5v-0.4c0-0.7,0-1.2-0.1-1.6c0.6,0.1,1,0.1,1.2,0.1c0.2,0,0.3,0.1,0.3,0.2
		c0,0.1,0,0.2-0.1,0.4c-0.1,0.1-0.1,0.4-0.1,0.8v1.1H180.7z M181.9,176.4v-3.2h-2.4l-3.3,0c-0.1,0-0.2-0.1-0.2-0.2v-0.8
		c0-0.1,0.1-0.2,0.2-0.2l3.3,0h6.5l3.3,0c0.1,0,0.2,0.1,0.2,0.2v0.8c0,0.1-0.1,0.2-0.2,0.2l-3.3,0h-3v3.2h4.7l3.4,0
		c0.1,0,0.2,0.1,0.2,0.2v0.8c0,0.1-0.1,0.2-0.2,0.2l-3.4,0H183v1.9l0,3.3c0,0.1-0.1,0.1-0.2,0.1H182c-0.1,0-0.2,0-0.2-0.1l0-3.3
		v-1.9h-3.5l-3.4,0c-0.1,0-0.2-0.1-0.2-0.2v-0.8c0-0.1,0.1-0.2,0.2-0.2l3.4,0H181.9z"/>
	<path class="st0" d="M206.8,165.8c-0.2,2.2-0.7,4.2-1.3,6.2c-0.5,1.8-1.2,3.2-1.9,4.3c-1,1.6-2.1,2.4-3.4,2.4
		c-0.9,0-1.7-0.5-2.4-1.5c-0.6-1-0.9-2.2-0.9-3.7c0-1.2,0.3-2.4,0.8-3.5c0.5-1.1,1.2-2,2-2.7c1.9-1.7,4.2-2.5,6.9-2.5
		c2.8,0,4.9,0.8,6.5,2.4c1.3,1.3,1.9,3.1,1.9,5.2c0,2.1-0.7,3.9-2,5.3c-1.3,1.4-3.1,2.3-5.5,2.9c-0.1,0-0.1,0-0.1,0
		c-0.1,0-0.3-0.1-0.4-0.3c-0.1-0.3-0.4-0.5-0.6-0.6c2.6-0.5,4.5-1.5,5.8-3c1.1-1.2,1.6-2.8,1.6-4.6c0-2-0.7-3.6-2.2-4.8
		c-1.2-1-2.6-1.5-4.3-1.5C207,165.8,206.8,165.8,206.8,165.8z M205.5,165.8c-2,0.2-3.6,0.9-4.9,2.2c-0.9,0.8-1.5,1.8-1.9,2.9
		c-0.3,0.9-0.5,1.7-0.5,2.5c0,1.4,0.3,2.4,0.8,3.1c0.4,0.5,0.8,0.8,1.3,0.8c0.8,0,1.6-0.6,2.4-1.9c0.7-1.2,1.4-2.8,1.9-4.7
		C205,169.1,205.3,167.5,205.5,165.8z"/>
	<path class="st0" d="M241.1,168.6l-3.6,12h-1.8l-2-7.4c-0.3-0.9-0.5-2.1-0.8-3.4h-0.3c-0.3,1.6-0.6,2.7-0.8,3.4l-2,7.4h-1.9
		l-3.6-12h1.6l2,7.5c0.3,1.2,0.6,2.3,0.8,3.4h0.3c0.5-2.2,0.8-3.3,0.8-3.3l2-7.5h1.9l2,7.4c0.2,0.6,0.4,1.8,0.8,3.4h0.3
		c0.3-1.3,0.6-2.4,0.8-3.4l2-7.4H241.1z"/>
	<path class="st0" d="M255.6,174.7h-8.7c0,1.7,0.4,3,1.2,3.9c0.7,0.8,1.5,1.1,2.6,1.1c1.7,0,2.9-0.9,3.4-2.6l1.4,0.5
		c-0.8,2.1-2.4,3.2-4.8,3.2c-1.7,0-3-0.6-4-1.9c-0.9-1.1-1.3-2.6-1.3-4.4c0-2,0.6-3.6,1.7-4.8c0.9-1,2.1-1.5,3.5-1.5
		c1.6,0,2.8,0.6,3.8,1.8c0.8,1.1,1.3,2.5,1.3,4.2V174.7z M254.1,173.6c-0.1-1.4-0.5-2.4-1.2-3.2c-0.6-0.6-1.4-0.9-2.3-0.9
		c-1.1,0-2,0.4-2.6,1.3c-0.6,0.7-0.9,1.7-1,2.8H254.1z"/>
	<path class="st0" d="M262.9,162.8v7.7c1-1.4,2.2-2.2,3.7-2.2s2.7,0.6,3.6,1.9c0.8,1.1,1.2,2.6,1.2,4.4c0,2.1-0.5,3.7-1.6,4.9
		c-0.9,1-2,1.5-3.3,1.5c-1.5,0-2.7-0.7-3.6-2.2l-0.3,1.9h-1.1v-17.8H262.9z M262.9,172v5.3c0.9,1.6,2,2.3,3.3,2.3
		c1.1,0,2-0.5,2.6-1.5c0.6-0.9,0.9-2.1,0.9-3.6c0-1.7-0.4-3-1.1-3.9c-0.6-0.7-1.4-1.1-2.3-1.1C264.9,169.6,263.8,170.4,262.9,172z"
		/>
	<path class="st0" d="M286.9,165.3v-1.5c0-0.9-0.1-1.6-0.2-2.1c0.5,0,0.9,0.1,1.3,0.1c0.2,0,0.2,0.1,0.2,0.2c0,0.1,0,0.2-0.1,0.4
		c-0.1,0.2-0.1,0.7-0.1,1.4v1.5h1.6l2.6,0c0.1,0,0.1,0.1,0.1,0.2v0.7c0,0.1,0,0.2-0.1,0.2l-2.6,0H288v3.1h2.2l3.2,0
		c0.1,0,0.2,0.1,0.2,0.2v0.7c0,0.1-0.1,0.2-0.2,0.2l-3.2,0H288v2.8h1.6l2.9,0c0.1,0,0.2,0.1,0.2,0.2l0,2.4v0.8l0,2.6
		c0,0.6-0.2,1.1-0.5,1.4c-0.3,0.2-0.9,0.3-1.9,0.3c-0.2,0-0.3,0-0.3-0.1c0,0-0.1-0.1-0.1-0.3c-0.1-0.3-0.2-0.5-0.4-0.7
		c0.5,0,1,0.1,1.4,0.1c0.5,0,0.8-0.3,0.8-0.8V174H288v4.1l0,4.4c0,0.1-0.1,0.2-0.2,0.2H287c-0.1,0-0.2-0.1-0.2-0.2l0-4.4V174h-3.6
		v3.9l0,2.6c0,0.1-0.1,0.1-0.2,0.1h-0.8c-0.1,0-0.2,0-0.2-0.1l0-2.6v-2.5l0-2.2c0-0.1,0.1-0.2,0.2-0.2l3,0h1.5v-2.8h-2.6l-3.2,0
		c-0.1,0-0.2-0.1-0.2-0.2v-0.7c0-0.1,0.1-0.2,0.2-0.2l3.2,0h2.6v-3.1h-3.1c-0.5,0.9-0.9,1.6-1.3,2.2c-0.1,0.1-0.2,0.2-0.2,0.2
		s-0.1,0-0.3-0.1c-0.2-0.1-0.4-0.2-0.6-0.3c1.2-1.5,2-3.1,2.3-4.8c0.1-0.3,0.1-0.5,0.1-0.8c0.4,0.1,0.7,0.2,1,0.3
		c0.2,0.1,0.2,0.1,0.2,0.2c0,0.1,0,0.1-0.1,0.2c-0.1,0.1-0.2,0.3-0.3,0.5c-0.1,0.5-0.3,1-0.5,1.4H286.9z M295,163.6
		c0.4,0,0.8,0.1,1.2,0.1c0.2,0,0.2,0.1,0.2,0.2c0,0,0,0.1-0.1,0.4c-0.1,0.2-0.1,1-0.1,2.4v6.5l0,3.1c0,0.1-0.1,0.2-0.2,0.2h-0.8
		c-0.1,0-0.2-0.1-0.2-0.2l0-3.1v-6.4C295.1,165.1,295.1,164.1,295,163.6z M296.4,181.1c0.6,0.1,1.3,0.1,2.2,0.1
		c0.5,0,0.9-0.1,1.1-0.2c0.2-0.2,0.2-0.5,0.2-1v-15.4c0-1.3-0.1-2.2-0.2-2.8c0.5,0,0.9,0.1,1.3,0.1c0.2,0,0.3,0.1,0.3,0.2
		c0,0.1-0.1,0.2-0.2,0.5c-0.1,0.2-0.1,0.9-0.1,2v12.3l0,3.2c0,0.9-0.2,1.5-0.6,1.8c-0.3,0.2-0.6,0.3-0.9,0.3
		c-0.3,0.1-0.9,0.1-1.6,0.1c-0.1,0-0.3,0-0.6,0c-0.2,0-0.3,0-0.3-0.1c0,0-0.1-0.1-0.1-0.3C296.8,181.7,296.6,181.4,296.4,181.1z"/>
	<path class="st0" d="M311.5,166.7v12l0,3.8c0,0.1,0,0.2-0.1,0.2h-0.9c-0.1,0-0.2-0.1-0.2-0.2l0-3.8v-6.5c0-1.3,0-2.6,0.1-3.8
		c-0.9,1.4-1.9,2.7-3,3.9c-0.1,0.1-0.2,0.2-0.2,0.2s-0.1-0.1-0.2-0.2c-0.2-0.3-0.4-0.5-0.6-0.6c2.6-2.6,4.4-5.6,5.6-9
		c0.2-0.5,0.3-1.1,0.3-1.6c0.5,0.1,0.9,0.3,1.2,0.4c0.1,0.1,0.2,0.2,0.2,0.3c0,0.1-0.1,0.2-0.2,0.3c-0.1,0.1-0.3,0.4-0.5,0.9
		C312.6,164.3,312.1,165.5,311.5,166.7z M319.3,166.8H317c-0.9,1.8-1.9,3.3-3,4.7c-0.1,0.2-0.2,0.2-0.3,0.2c-0.1,0-0.1-0.1-0.2-0.2
		c-0.1-0.2-0.3-0.3-0.6-0.4c1.1-1.3,2.1-2.8,3-4.5c0.7-1.4,1.3-2.6,1.6-3.7c0.2-0.6,0.3-1.1,0.3-1.6c0.4,0.1,0.8,0.3,1.2,0.4
		c0.2,0.1,0.2,0.2,0.2,0.2c0,0.1-0.1,0.2-0.2,0.3c-0.1,0.1-0.3,0.4-0.5,0.9c-0.4,0.9-0.7,1.8-1.2,2.7h7.2l3.1,0c0.1,0,0.2,0,0.2,0.1
		v0.8c0,0.1-0.1,0.2-0.2,0.2l-3.1,0h-4.3v3.8h4l2.2,0c0.1,0,0.2,0,0.2,0.1v0.8c0,0.1-0.1,0.2-0.2,0.2l-2.2,0h-4v3.9h4l2.3,0
		c0.1,0,0.2,0.1,0.2,0.2v0.8c0,0.1-0.1,0.2-0.2,0.2l-2.3,0h-4v2.3l0,3.7c0,0.1-0.1,0.1-0.2,0.1h-0.9c-0.1,0-0.2,0-0.2-0.1l0-3.7
		V166.8z"/>
	<path class="st0" d="M352.2,172.5c-0.1,1.2-0.4,2.3-0.8,3.4c-0.4,0.9-0.8,1.7-1.3,2.2c0.6,0.6,1.2,1.1,1.7,1.3
		c0.4,0.2,1,0.3,1.8,0.3l-0.4,1.2h-0.3c-0.9,0-1.6-0.2-2.2-0.5c-0.5-0.2-1-0.7-1.5-1.3c-1.3,1.2-2.9,1.8-4.9,1.8
		c-1.7,0-3.1-0.5-4.1-1.6c-0.9-0.9-1.3-2.1-1.3-3.4c0-1.3,0.4-2.4,1.1-3.3c0.6-0.8,1.6-1.4,2.8-2c-0.9-1.4-1.3-2.7-1.3-3.8
		c0-1.1,0.4-2.1,1.2-2.8c0.7-0.6,1.6-0.9,2.6-0.9c1.2,0,2.1,0.4,2.8,1.1c0.6,0.6,0.9,1.4,0.9,2.4c0,1.1-0.4,2-1.1,2.7
		c-0.7,0.6-1.8,1.2-3.2,1.7c1.5,2.4,3.1,4.5,4.8,6.4c0.8-1.1,1.3-2.9,1.6-5.2L352.2,172.5z M343.2,171.4c-1.2,0.6-2,1.3-2.4,2
		c-0.4,0.6-0.6,1.4-0.6,2.4c0,1.2,0.4,2.1,1.3,2.9c0.8,0.7,1.7,1,2.8,1c1.6,0,2.9-0.5,4-1.4C346.5,176.2,344.8,173.9,343.2,171.4z
		 M343.9,170.1c1.4-0.5,2.4-1.1,2.9-1.7c0.4-0.5,0.6-1.2,0.6-2c0-0.7-0.2-1.3-0.7-1.7c-0.4-0.4-0.9-0.6-1.6-0.6
		c-0.7,0-1.4,0.3-1.8,0.8c-0.4,0.5-0.6,1-0.6,1.7c0,0.6,0.1,1.2,0.3,1.7C343.2,168.9,343.5,169.4,343.9,170.1z"/>
	<path class="st0" d="M365.8,165.5c1.3,0.1,2.8,0.1,4.6,0.1h8.5c0.5,0,0.8-0.1,1.1-0.2c0.1,0,0.2-0.1,0.3-0.1c0.1,0,0.2,0,0.3,0.1
		c0.3,0.3,0.6,0.5,0.9,0.8c0.1,0.1,0.1,0.2,0.1,0.3c0,0.1-0.1,0.2-0.2,0.3c-0.2,0.2-0.4,0.5-0.5,0.8c-1.1,2.9-2.6,5.5-4.7,7.9
		c-2.1,2.3-4.4,4.3-7.2,5.8c-0.1,0.1-0.2,0.1-0.3,0.1c-0.1,0-0.2,0-0.3-0.1c-0.2-0.2-0.5-0.4-0.9-0.7c1.8-0.9,3.4-1.9,4.7-3
		c0.9-0.8,1.9-1.7,2.9-2.8c2.2-2.5,3.7-5.1,4.7-8h-9.3c-1.6,0-2.9,0-4.1,0.1c0,0-0.1,0-0.1,0c-0.2,0-0.3-0.1-0.3-0.4
		C365.8,166,365.8,165.6,365.8,165.5z M383.4,160.8c0.7,0,1.3,0.3,1.7,0.8c0.4,0.4,0.6,1,0.6,1.6c0,0.7-0.3,1.3-0.8,1.7
		c-0.4,0.4-1,0.6-1.6,0.6c-0.7,0-1.2-0.3-1.7-0.8c-0.4-0.4-0.6-1-0.6-1.6c0-0.7,0.3-1.3,0.8-1.7C382.3,161,382.8,160.8,383.4,160.8z
		 M383.4,161.6c-0.4,0-0.8,0.2-1.1,0.5c-0.3,0.3-0.4,0.6-0.4,1c0,0.4,0.2,0.8,0.5,1.1c0.3,0.3,0.6,0.4,1,0.4c0.5,0,0.8-0.2,1.1-0.5
		c0.2-0.3,0.4-0.6,0.4-1c0-0.5-0.2-0.8-0.5-1.1C384.2,161.8,383.8,161.6,383.4,161.6z"/>
	<path class="st0" d="M405.4,177.6h-10.8v1.7c0,0.2-0.1,0.3-0.3,0.3c-0.4,0-0.7,0-0.9,0c-0.2,0-0.3-0.1-0.3-0.3
		c0.1-1.5,0.1-3,0.1-4.5v-5.1c0-1.7,0-2.9,0-3.8c0-0.2,0.1-0.2,0.2-0.2c0.8,0,2,0,3.7,0h5.2c1.9,0,3.3,0,4.1,0
		c0.2,0,0.3,0.1,0.3,0.3c0,1.6,0,2.8,0,3.8v5.2c0,1.2,0,2.6,0.1,4.2c0,0.2-0.1,0.3-0.3,0.3h-0.9c-0.1,0-0.2-0.1-0.2-0.3V177.6z
		 M405.4,176.5v-9.6h-10.9v9.6H405.4z"/>
	<path class="st0" d="M424.1,166.3l5.9-0.1c0.5,0,0.9-0.1,1.1-0.2c0.1,0,0.1,0,0.2,0c0.1,0,0.2,0,0.4,0.1c0.2,0.1,0.4,0.3,0.7,0.6
		c0.1,0.1,0.2,0.3,0.2,0.4c0,0.1,0,0.2-0.1,0.2c-0.3,0.2-0.5,0.5-0.6,0.8c-1.5,3.2-3,5.7-4.6,7.5c-2.3,2.6-4.8,4.7-7.5,6.3
		c-0.1,0-0.1,0.1-0.2,0.1c-0.1,0-0.1,0-0.2-0.1c-0.3-0.3-0.7-0.5-1.1-0.6c1.8-1,3.4-2,4.7-3.1c1.1-0.9,2.2-2,3.2-3.2
		c1.7-2,3.2-4.5,4.5-7.5l-7.3,0.2c-1.5,2-3.1,3.7-4.8,5.2c-0.1,0.1-0.2,0.1-0.3,0.1c-0.1,0-0.1,0-0.2-0.1c-0.3-0.2-0.7-0.4-1.1-0.4
		c2.6-2.1,4.6-4.4,6.1-6.8c0.7-1.1,1.1-2.1,1.2-3c0.7,0.2,1.2,0.5,1.5,0.8c0.1,0.1,0.2,0.2,0.2,0.3s-0.1,0.2-0.2,0.3
		c-0.3,0.2-0.6,0.5-0.8,0.9C424.8,165.3,424.4,165.8,424.1,166.3z M431.7,163.3l0.7-0.5c0,0,0.1,0,0.1,0s0.1,0,0.1,0
		c0.9,0.6,1.8,1.6,2.7,2.9c0,0,0,0.1,0,0.1s0,0.1-0.1,0.1l-0.6,0.5c0,0-0.1,0.1-0.1,0.1c-0.1,0-0.1,0-0.2-0.1
		C433.7,165,432.8,164,431.7,163.3z M433.7,161.8l0.6-0.5c0,0,0.1-0.1,0.1-0.1s0.1,0,0.1,0c1.1,0.8,2,1.7,2.7,2.8c0,0,0,0.1,0,0.1
		c0,0,0,0.1-0.1,0.1l-0.6,0.5c0,0-0.1,0-0.1,0c0,0-0.1,0-0.1-0.1C435.7,163.5,434.8,162.5,433.7,161.8z"/>
	<path class="st0" d="M444,168.7c1.2,0.1,2.6,0.1,4.2,0.1h8.4c0.6,0,1,0,1.1-0.1c0.1-0.1,0.2-0.1,0.3-0.1c0.1,0,0.2,0,0.4,0.1
		c0.3,0.2,0.5,0.4,0.7,0.6c0.1,0.1,0.1,0.2,0.1,0.3c0,0.1-0.1,0.2-0.2,0.3c-0.2,0.2-0.4,0.4-0.5,0.6c-2.1,4.9-5.4,8.5-10.1,10.9
		c-0.1,0.1-0.2,0.1-0.3,0.1c-0.1,0-0.2,0-0.2-0.1c-0.3-0.3-0.6-0.5-1.1-0.7c5.1-2.4,8.6-6.1,10.5-10.9h-9c-1.1,0-2.3,0.1-3.7,0.2
		c0,0-0.1,0-0.1,0c-0.1,0-0.2-0.1-0.3-0.2C444.1,169.4,444,168.9,444,168.7z M446,163.7c1.1,0.1,2.4,0.1,3.9,0.1h3.5
		c1.4,0,2.6,0,3.7-0.1c0,0,0,0,0.1,0c0.1,0,0.2,0.1,0.2,0.2c0,0.1,0,0.2,0,0.4s0,0.3,0,0.4c0,0.2-0.1,0.3-0.3,0.3
		c-1.2,0-2.4-0.1-3.6-0.1h-3.6c-1.4,0-2.5,0-3.5,0.1c-0.2,0-0.3-0.1-0.3-0.3C446.1,164.2,446,163.8,446,163.7z"/>
	<path class="st0" d="M471.5,177.7c0.1-0.3,0.3-0.7,0.5-1c0.1-0.1,0.2-0.2,0.3-0.2c0,0,0.1,0,0.2,0c4.4,0.9,8.1,2.1,11.1,3.7
		c0.1,0,0.2,0.1,0.2,0.2c0,0.1,0,0.1,0,0.2c-0.1,0.3-0.3,0.6-0.4,0.7c-0.1,0.1-0.1,0.2-0.2,0.2c-0.1,0-0.1,0-0.2-0.1
		C479.6,179.8,475.8,178.5,471.5,177.7z M471.9,170.3c0.1-0.3,0.3-0.7,0.5-1c0-0.1,0.1-0.1,0.2-0.1c0,0,0.1,0,0.2,0
		c2.6,0.6,4.9,1.4,7,2.3c0.1,0.1,0.2,0.1,0.2,0.2c0,0,0,0.1,0,0.2c-0.1,0.2-0.2,0.5-0.3,0.7c-0.1,0.1-0.1,0.2-0.2,0.2
		c-0.1,0-0.1,0-0.2-0.1C477,171.7,474.5,170.9,471.9,170.3z M473.5,164.1c0.2-0.6,0.4-0.9,0.5-1c0.1-0.1,0.1-0.2,0.2-0.2
		c0,0,0.1,0,0.1,0c3.3,0.7,6,1.5,8.2,2.5c0.1,0.1,0.2,0.2,0.2,0.2c0,0,0,0.1,0,0.1c-0.1,0.2-0.2,0.5-0.4,0.8
		c-0.1,0.1-0.1,0.1-0.2,0.1s-0.2,0-0.3-0.1C479.5,165.5,476.8,164.6,473.5,164.1z"/>
	<path class="st0" d="M495.5,165.9c0.2-0.3,0.5-0.6,0.7-0.8c0.1-0.1,0.1-0.1,0.2-0.1c0,0,0.1,0,0.2,0.1c1.5,0.9,2.9,2,4.2,3.1
		c0.1,0.1,0.1,0.2,0.1,0.2c0,0,0,0.1-0.1,0.2c-0.2,0.3-0.4,0.6-0.6,0.8c-0.1,0.1-0.1,0.1-0.2,0.1c0,0-0.1,0-0.1-0.1
		C498.4,167.9,497,166.8,495.5,165.9z M496.1,178.7c0.8-0.2,1.6-0.5,2.3-0.9c2.7-1.4,5-2.9,6.9-4.4c2.6-2.1,4.8-4.2,6.4-6.4
		c0,0.4,0.2,0.8,0.4,1.2c0,0.1,0.1,0.2,0.1,0.3c0,0.1-0.1,0.3-0.2,0.5c-1.7,1.9-3.6,3.8-5.9,5.6c-2,1.6-4.4,3.1-7.2,4.7
		c-0.5,0.3-1,0.6-1.2,0.9c-0.1,0.1-0.2,0.1-0.3,0.1s-0.2,0-0.3-0.1C496.8,179.8,496.4,179.3,496.1,178.7z"/>
	<path class="st0" d="M527.3,166.3l5.9-0.1c0.5,0,0.9-0.1,1.1-0.2c0.1,0,0.1,0,0.2,0c0.1,0,0.2,0,0.4,0.1c0.2,0.1,0.4,0.3,0.7,0.6
		c0.1,0.1,0.2,0.3,0.2,0.4c0,0.1,0,0.2-0.1,0.2c-0.3,0.2-0.5,0.5-0.6,0.8c-1.5,3.2-3,5.7-4.6,7.5c-2.3,2.6-4.8,4.7-7.5,6.3
		c-0.1,0-0.1,0.1-0.2,0.1c-0.1,0-0.1,0-0.2-0.1c-0.3-0.3-0.7-0.5-1.1-0.6c1.8-1,3.4-2,4.7-3.1c1.1-0.9,2.2-2,3.2-3.2
		c1.7-2,3.2-4.5,4.5-7.5l-7.3,0.2c-1.5,2-3.1,3.7-4.8,5.2c-0.1,0.1-0.2,0.1-0.3,0.1c-0.1,0-0.1,0-0.2-0.1c-0.3-0.2-0.7-0.4-1.1-0.4
		c2.6-2.1,4.6-4.4,6.1-6.8c0.7-1.1,1.1-2.1,1.2-3c0.7,0.2,1.2,0.5,1.5,0.8c0.1,0.1,0.2,0.2,0.2,0.3s-0.1,0.2-0.2,0.3
		c-0.3,0.2-0.6,0.5-0.8,0.9C528,165.3,527.6,165.8,527.3,166.3z M534.9,163.3l0.7-0.5c0,0,0.1,0,0.1,0s0.1,0,0.1,0
		c0.9,0.6,1.8,1.6,2.7,2.9c0,0,0,0.1,0,0.1s0,0.1-0.1,0.1l-0.6,0.5c0,0-0.1,0.1-0.1,0.1c-0.1,0-0.1,0-0.2-0.1
		C536.9,165,536,164,534.9,163.3z M536.9,161.8l0.6-0.5c0,0,0.1-0.1,0.1-0.1s0.1,0,0.1,0c1.1,0.8,2,1.7,2.7,2.8c0,0,0,0.1,0,0.1
		c0,0,0,0.1-0.1,0.1l-0.6,0.5c0,0-0.1,0-0.1,0c0,0-0.1,0-0.1-0.1C538.9,163.5,538,162.5,536.9,161.8z"/>
	<path class="st0" d="M550.4,168.4h0.8c1.2-1.3,2.3-2.7,3.3-4.4c0.3-0.5,0.5-1,0.6-1.4c0.4,0.2,0.7,0.4,1,0.5
		c0.2,0.1,0.2,0.2,0.2,0.3c0,0.1-0.1,0.2-0.2,0.3c-0.3,0.2-0.6,0.6-1,1.2c-0.7,1.1-1.6,2.3-2.6,3.5l2.9,0c0.1,0,0.2,0.1,0.2,0.2v0.7
		c0,0.1-0.1,0.2-0.2,0.2l-3,0h-0.7c-0.9,0.9-1.8,1.7-2.8,2.5h4.1c0.2,0,0.3,0,0.4-0.1c0.1,0,0.1,0,0.2,0c0.1,0,0.3,0.1,0.5,0.3
		c0.2,0.3,0.4,0.5,0.4,0.6c0,0.1-0.1,0.2-0.2,0.2c-0.2,0.1-0.4,0.3-0.8,0.6c-0.9,0.8-1.7,1.5-2.4,2c0,0.1,0,0.3,0,0.6v0.2
		c1.4-0.3,2.8-0.6,4.1-1c-0.1,0.2-0.1,0.4-0.1,0.6c0,0.2,0,0.3,0,0.4s-0.1,0.1-0.4,0.1c-1.1,0.3-2.3,0.6-3.6,0.9v0.7l0,2.8
		c0,0.6-0.2,1.1-0.6,1.4c-0.4,0.3-1.1,0.4-2.2,0.4c-0.1,0-0.2,0-0.4,0s-0.3,0-0.3,0c0,0-0.1-0.1-0.1-0.3c-0.1-0.3-0.2-0.6-0.4-0.8
		c0.5,0.1,1.1,0.1,1.9,0.1c0.4,0,0.7-0.1,0.9-0.2c0.2-0.2,0.3-0.4,0.3-0.8v-3c-1,0.2-2.2,0.4-3.6,0.7c-0.6,0.1-0.9,0.2-1,0.2
		c-0.1,0.1-0.2,0.1-0.3,0.1c-0.1,0-0.1-0.1-0.2-0.2c-0.1-0.3-0.3-0.6-0.4-1c0.7,0,1.6-0.1,2.5-0.2c0.6-0.1,1.6-0.3,3-0.5
		c0-0.9-0.1-1.6-0.2-1.9c0.4,0,0.7,0.1,0.9,0.1c0.9-0.7,1.6-1.4,2.1-2h-5.1c-1,0.7-1.9,1.3-2.8,1.7c-0.1,0.1-0.2,0.1-0.3,0.1
		c-0.1,0-0.2-0.1-0.3-0.3c-0.2-0.2-0.3-0.3-0.5-0.4c2.5-1.3,4.7-2.8,6.5-4.5h-2.6l-3.1,0c-0.1,0-0.2-0.1-0.2-0.2v-0.7
		c0-0.1,0.1-0.2,0.2-0.2l3.1,0h1.7v-3h-1.2l-2.4,0c-0.1,0-0.2-0.1-0.2-0.2v-0.7c0-0.1,0.1-0.2,0.2-0.2l2.4,0h1.2v-0.4
		c0-1.3-0.1-2.2-0.2-2.7c0.5,0,0.9,0.1,1.2,0.1c0.2,0,0.3,0.1,0.3,0.2s-0.1,0.2-0.2,0.5c-0.1,0.2-0.1,0.8-0.1,1.9v0.5h0.1l2.4,0
		c0.1,0,0.2,0.1,0.2,0.2v0.7c0,0.1-0.1,0.2-0.2,0.2l-2.4,0h-0.1V168.4z M563.3,167.4c-0.3,3.5-1.1,6.5-2.6,8.9
		c1.2,1.8,3,3.5,5.4,5.2c-0.3,0.2-0.5,0.4-0.6,0.7c-0.1,0.2-0.2,0.3-0.2,0.3c0,0-0.1-0.1-0.3-0.2c-2.2-1.8-3.8-3.4-4.9-5.1
		c-1.5,2.1-3.7,3.8-6.4,5.3c-0.2,0.1-0.3,0.1-0.3,0.1c-0.1,0-0.2-0.1-0.3-0.2c-0.2-0.2-0.4-0.4-0.6-0.6c3.1-1.4,5.5-3.3,7.1-5.6
		c-1.1-1.9-1.8-4-2.3-6.3c-0.4,0.9-0.9,1.7-1.3,2.4c-0.1,0.2-0.2,0.2-0.2,0.2c0,0-0.1-0.1-0.3-0.2c-0.2-0.2-0.4-0.3-0.6-0.3
		c1.6-2.2,2.8-5.2,3.6-8.7c0.1-0.8,0.2-1.5,0.2-2.1c0.3,0.1,0.7,0.2,1.1,0.3c0.2,0.1,0.3,0.2,0.3,0.3c0,0.1-0.1,0.2-0.2,0.4
		c-0.1,0.2-0.2,0.5-0.4,1.1c-0.3,1.1-0.6,2.2-0.8,3h4.3l2.5,0c0.1,0,0.2,0.1,0.2,0.2v0.7c0,0.1-0.1,0.2-0.2,0.2L563.3,167.4z
		 M562.2,167.4h-4c-0.2,0.5-0.3,0.9-0.5,1.2c0.6,2.9,1.4,5.1,2.3,6.8C561.3,173.1,562,170.5,562.2,167.4z"/>
	<path class="st0" d="M579.9,180.7v-3.4h-3.5l-3.4,0c-0.1,0-0.2-0.1-0.2-0.2v-0.8c0-0.1,0.1-0.2,0.2-0.2l3.4,0h3.5v-0.2
		c0-1.2-0.1-2-0.2-2.4c0.4,0,0.8,0.1,1.2,0.1c0.2,0,0.3,0.1,0.3,0.2c0,0.1-0.1,0.2-0.2,0.4c-0.1,0.2-0.1,0.8-0.1,1.7v0.2h3.9l3.4,0
		c0.1,0,0.2,0.1,0.2,0.2v0.8c0,0.1-0.1,0.2-0.2,0.2l-3.4,0H581v3.4h6.8l3.2,0c0.1,0,0.1,0.1,0.1,0.2v0.8c0,0.1,0,0.2-0.1,0.2l-3.2,0
		h-14.2l-3.2,0c-0.1,0-0.2-0.1-0.2-0.2v-0.8c0-0.1,0.1-0.2,0.2-0.2l3.2,0H579.9z M579.9,163.6v-0.5c0-0.9-0.1-1.6-0.2-2
		c0.4,0,0.9,0.1,1.3,0.1c0.2,0,0.3,0.1,0.3,0.2c0,0.1,0,0.2-0.1,0.4c-0.1,0.2-0.1,0.6-0.1,1.3v0.5h5.8l3.3,0c0.1,0,0.2,0.1,0.2,0.2
		l0,1v0.8l0,2.4c0,0.1-0.1,0.2-0.2,0.2h-0.8c-0.1,0-0.2-0.1-0.2-0.2v-3.4h-17v3.4c0,0.1-0.1,0.2-0.2,0.2h-0.8
		c-0.1,0-0.2-0.1-0.2-0.2l0-2.4v-0.7l0-1.2c0-0.1,0.1-0.2,0.2-0.2l3.4,0H579.9z M579.4,168.2c-0.6,1.4-1.3,2.7-2.1,3.9
		c1.4-0.1,2.8-0.2,4.2-0.3c0.9-0.1,2.2-0.2,3.9-0.4c-0.5-0.5-1.1-1.1-1.8-1.6c-0.1,0-0.1-0.1-0.1-0.1c0-0.1,0.1-0.1,0.2-0.2l0.3-0.2
		c0.1-0.1,0.2-0.1,0.2-0.1s0.1,0,0.1,0.1c1.3,1,2.6,2.3,4,3.9c0,0,0,0.1,0,0.1c0,0-0.1,0.1-0.2,0.3l-0.4,0.3
		c-0.1,0.1-0.1,0.1-0.2,0.1s-0.1,0-0.2-0.1c-0.4-0.5-0.8-1.1-1.3-1.6c-3,0.4-7,0.7-12.2,1c-0.6,0-1,0.1-1.1,0.2
		c-0.1,0.1-0.1,0.1-0.2,0.1c-0.1,0-0.1-0.1-0.2-0.2l-0.3-1.1c0.4,0,0.8,0,1.4,0c0.3,0,0.7,0,1,0c0.6,0,1.1-0.1,1.5-0.1
		c0.8-1.2,1.5-2.5,2.1-4H577l-3.3,0c-0.1,0-0.2-0.1-0.2-0.2v-0.7c0-0.1,0.1-0.2,0.2-0.2l3.3,0h7.2l3.3,0c0.1,0,0.2,0.1,0.2,0.2v0.7
		c0,0.1-0.1,0.2-0.2,0.2l-3.3,0H579.4z"/>
</g>
</svg>
